<svg width="18" height="19" viewBox="0 0 18 19" fill="none" xmlns="http://www.w3.org/2000/svg">
<path fill-rule="evenodd" clip-rule="evenodd" d="M18 8.58086V17.248C18 18.0765 17.3284 18.748 16.5 18.748H12.75C11.9216 18.748 11.25 18.0765 11.25 17.248V13.498C11.25 13.0838 10.9142 12.748 10.5 12.748H7.5C7.08579 12.748 6.75 13.0838 6.75 13.498V17.248C6.75 18.0765 6.07843 18.748 5.25 18.748H1.5C0.671573 18.748 0 18.0765 0 17.248V8.58086C-6.38962e-05 8.16114 0.17573 7.76058 0.484688 7.47648L7.98469 0.400234L7.995 0.389922C8.56719 -0.130452 9.44124 -0.130452 10.0134 0.389922C10.0166 0.39359 10.0201 0.397036 10.0238 0.400234L17.5238 7.47648C17.8296 7.76207 18.0022 8.16242 18 8.58086Z" fill="#0D141C"/>
</svg>
