<svg width="20" height="18" viewBox="0 0 20 18" fill="none" xmlns="http://www.w3.org/2000/svg">
<path fill-rule="evenodd" clip-rule="evenodd" d="M19.3658 0.893437C19.1299 0.34823 18.5911 -0.00340652 17.9971 0H1.49707C0.903944 0.00116873 0.367207 0.351728 0.127727 0.89436C-0.111753 1.43699 -0.00899649 2.06978 0.389883 2.50875L0.397383 2.51719L6.74707 9.29719V16.5C6.74694 17.0532 7.05125 17.5615 7.53887 17.8226C8.02649 18.0838 8.61826 18.0554 9.07863 17.7488L12.0786 15.7481C12.4963 15.4699 12.7472 15.0012 12.7471 14.4994V9.29719L19.0977 2.51719L19.1052 2.50875C19.5086 2.0715 19.6112 1.43536 19.3658 0.893437ZM11.6539 8.27625C11.3934 8.55242 11.2479 8.91751 11.2471 9.29719V14.4994L8.24707 16.5V9.29719C8.24794 8.91615 8.10304 8.5492 7.84207 8.27156L1.49707 1.5H17.9971L11.6539 8.27625Z" fill="#0D141C"/>
</svg>
