<svg width="24" height="24" viewBox="0 0 24 24" fill="none" xmlns="http://www.w3.org/2000/svg">
<g clip-path="url(#clip0_468_550)">
<path fill-rule="evenodd" clip-rule="evenodd" d="M19.5 7.5H16.5V5.25C16.5 2.76472 14.4853 0.75 12 0.75C9.51472 0.75 7.5 2.76472 7.5 5.25V7.5H4.5C3.67157 7.5 3 8.17157 3 9V19.5C3 20.3284 3.67157 21 4.5 21H19.5C20.3284 21 21 20.3284 21 19.5V9C21 8.17157 20.3284 7.5 19.5 7.5ZM9 5.25C9 3.59315 10.3431 2.25 12 2.25C13.6569 2.25 15 3.59315 15 5.25V7.5H9V5.25ZM19.5 19.5H4.5V9H19.5V19.5ZM13.125 14.25C13.125 14.8713 12.6213 15.375 12 15.375C11.3787 15.375 10.875 14.8713 10.875 14.25C10.875 13.6287 11.3787 13.125 12 13.125C12.6213 13.125 13.125 13.6287 13.125 14.25Z" fill="#0D141C"/>
</g>
<defs>
<clipPath id="clip0_468_550">
<rect width="24" height="24" fill="white"/>
</clipPath>
</defs>
</svg>
