<svg width="15" height="15" viewBox="0 0 15 15" fill="none" xmlns="http://www.w3.org/2000/svg">
<path fill-rule="evenodd" clip-rule="evenodd" d="M13.75 0H1.25C0.559644 0 0 0.559644 0 1.25V13.75C0 14.4404 0.559644 15 1.25 15H13.75C14.4404 15 15 14.4404 15 13.75V1.25C15 0.559644 14.4404 0 13.75 0ZM11.875 8.125H8.125V11.875C8.125 12.2202 7.84518 12.5 7.5 12.5C7.15482 12.5 6.875 12.2202 6.875 11.875V8.125H3.125C2.77982 8.125 2.5 7.84518 2.5 7.5C2.5 7.15482 2.77982 6.875 3.125 6.875H6.875V3.125C6.875 2.77982 7.15482 2.5 7.5 2.5C7.84518 2.5 8.125 2.77982 8.125 3.125V6.875H11.875C12.2202 6.875 12.5 7.15482 12.5 7.5C12.5 7.84518 12.2202 8.125 11.875 8.125Z" fill="#F7FAFC"/>
</svg>
