<svg width="20" height="20" viewBox="0 0 20 20" fill="none" xmlns="http://www.w3.org/2000/svg">
<g clip-path="url(#clip0_484_1045)">
<path fill-rule="evenodd" clip-rule="evenodd" d="M10.9375 14.0625C10.9375 14.5803 10.5178 15 10 15C9.48223 15 9.0625 14.5803 9.0625 14.0625C9.0625 13.5447 9.48223 13.125 10 13.125C10.5178 13.125 10.9375 13.5447 10.9375 14.0625ZM10 5.625C8.27656 5.625 6.875 6.88672 6.875 8.4375V8.75C6.875 9.09518 7.15482 9.375 7.5 9.375C7.84518 9.375 8.125 9.09518 8.125 8.75V8.4375C8.125 7.57812 8.96641 6.875 10 6.875C11.0336 6.875 11.875 7.57812 11.875 8.4375C11.875 9.29688 11.0336 10 10 10C9.65482 10 9.375 10.2798 9.375 10.625V11.25C9.375 11.5952 9.65482 11.875 10 11.875C10.3452 11.875 10.625 11.5952 10.625 11.25V11.1938C12.05 10.932 13.125 9.79531 13.125 8.4375C13.125 6.88672 11.7234 5.625 10 5.625ZM18.125 10C18.125 14.4873 14.4873 18.125 10 18.125C5.51269 18.125 1.875 14.4873 1.875 10C1.875 5.51269 5.51269 1.875 10 1.875C14.4853 1.87974 18.1203 5.51465 18.125 10ZM16.875 10C16.875 6.20304 13.797 3.125 10 3.125C6.20304 3.125 3.125 6.20304 3.125 10C3.125 13.797 6.20304 16.875 10 16.875C13.7952 16.8707 16.8707 13.7952 16.875 10Z" fill="#0D141C"/>
</g>
<defs>
<clipPath id="clip0_484_1045">
<rect width="20" height="20" fill="white"/>
</clipPath>
</defs>
</svg>
