<svg width="20" height="20" viewBox="0 0 20 20" fill="none" xmlns="http://www.w3.org/2000/svg">
<path fill-rule="evenodd" clip-rule="evenodd" d="M9.81006 5.31055C7.32478 5.31055 5.31006 7.32527 5.31006 9.81055C5.31006 12.2958 7.32478 14.3105 9.81006 14.3105C12.2953 14.3105 14.3101 12.2958 14.3101 9.81055C14.3075 7.32634 12.2943 5.31313 9.81006 5.31055ZM9.81006 12.8105C8.1532 12.8105 6.81006 11.4674 6.81006 9.81055C6.81006 8.15369 8.1532 6.81055 9.81006 6.81055C11.4669 6.81055 12.8101 8.15369 12.8101 9.81055C12.8101 11.4674 11.4669 12.8105 9.81006 12.8105ZM18.0601 10.013C18.0638 9.87805 18.0638 9.74305 18.0601 9.60805L19.4588 7.86055C19.6075 7.67448 19.659 7.42881 19.5976 7.19867C19.3683 6.33674 19.0252 5.50916 18.5776 4.73773C18.4587 4.53304 18.2502 4.39647 18.0151 4.3693L15.7913 4.1218C15.6988 4.0243 15.6051 3.93055 15.5101 3.84055L15.2476 1.61117C15.2202 1.37586 15.0832 1.16731 14.8782 1.04867C14.1065 0.60181 13.279 0.259142 12.4172 0.0296094C12.187 -0.0316167 11.9413 0.0202336 11.7554 0.169297L10.0126 1.56055C9.87756 1.56055 9.74256 1.56055 9.60756 1.56055L7.86006 0.164609C7.67399 0.0158727 7.42832 -0.0356262 7.19818 0.0258594C6.33639 0.255572 5.50886 0.598562 4.73725 1.04586C4.53255 1.16472 4.39598 1.37323 4.36881 1.60836L4.12131 3.83586C4.02381 3.92898 3.93006 4.02273 3.84006 4.11711L1.61068 4.37305C1.37537 4.40042 1.16682 4.53737 1.04818 4.74242C0.601321 5.51414 0.258653 6.34165 0.0291212 7.20336C-0.032105 7.43365 0.0197453 7.67933 0.168809 7.86523L1.56006 9.60805C1.56006 9.74305 1.56006 9.87805 1.56006 10.013L0.164121 11.7605C0.0153844 11.9466 -0.0361145 12.1923 0.0253711 12.4224C0.254674 13.2844 0.597686 14.1119 1.04537 14.8834C1.16423 15.0881 1.37274 15.2246 1.60787 15.2518L3.83162 15.4993C3.92475 15.5968 4.0185 15.6905 4.11287 15.7805L4.37256 18.0099C4.39994 18.2452 4.53688 18.4538 4.74193 18.5724C5.51365 19.0193 6.34116 19.362 7.20287 19.5915C7.43316 19.6527 7.67884 19.6009 7.86475 19.4518L9.60756 18.0605C9.74256 18.0643 9.87756 18.0643 10.0126 18.0605L11.7601 19.4593C11.9461 19.608 12.1918 19.6595 12.4219 19.598C13.2839 19.3687 14.1115 19.0257 14.8829 18.578C15.0876 18.4592 15.2241 18.2507 15.2513 18.0155L15.4988 15.7918C15.5963 15.6993 15.6901 15.6055 15.7801 15.5105L18.0094 15.248C18.2447 15.2207 18.4533 15.0837 18.5719 14.8787C19.0188 14.107 19.3615 13.2794 19.591 12.4177C19.6522 12.1874 19.6004 11.9418 19.4513 11.7559L18.0601 10.013ZM16.5507 9.40367C16.5666 9.67469 16.5666 9.94641 16.5507 10.2174C16.5395 10.403 16.5976 10.5861 16.7138 10.7312L18.0441 12.3934C17.8915 12.8785 17.696 13.3491 17.4601 13.7996L15.3413 14.0396C15.1568 14.0601 14.9864 14.1483 14.8632 14.2871C14.6827 14.4901 14.4905 14.6823 14.2876 14.8627C14.1487 14.986 14.0605 15.1563 14.0401 15.3409L13.8047 17.4577C13.3543 17.6938 12.8837 17.8893 12.3985 18.0418L10.7354 16.7115C10.6023 16.6052 10.437 16.5473 10.2666 16.5474H10.2216C9.95061 16.5634 9.67889 16.5634 9.40787 16.5474C9.22232 16.5363 9.03924 16.5944 8.89412 16.7105L7.22725 18.0418C6.74212 17.8891 6.27152 17.6937 5.821 17.4577L5.581 15.3418C5.56051 15.1573 5.47233 14.9869 5.3335 14.8637C5.13054 14.6832 4.93833 14.491 4.75787 14.288C4.63462 14.1492 4.46426 14.061 4.27975 14.0405L2.16287 13.8043C1.9268 13.3538 1.73134 12.8832 1.57881 12.398L2.90912 10.7349C3.02528 10.5898 3.08342 10.4067 3.07225 10.2212C3.05631 9.95016 3.05631 9.67844 3.07225 9.40742C3.08342 9.22187 3.02528 9.03879 2.90912 8.89367L1.57881 7.22773C1.73146 6.74261 1.92691 6.27201 2.16287 5.82148L4.27881 5.58148C4.46332 5.561 4.63368 5.47282 4.75693 5.33398C4.93739 5.13102 5.1296 4.93882 5.33256 4.75836C5.47194 4.63503 5.56049 4.46428 5.581 4.2793L5.81631 2.16336C6.26678 1.92729 6.73739 1.73183 7.22256 1.5793L8.88568 2.90961C9.0308 3.02577 9.21389 3.0839 9.39943 3.07273C9.67045 3.0568 9.94217 3.0568 10.2132 3.07273C10.3987 3.0839 10.5818 3.02577 10.7269 2.90961L12.3929 1.5793C12.878 1.73195 13.3486 1.9274 13.7991 2.16336L14.0391 4.2793C14.0596 4.46381 14.1478 4.63417 14.2866 4.75742C14.4896 4.93788 14.6818 5.13009 14.8622 5.33305C14.9855 5.47188 15.1559 5.56007 15.3404 5.58055L17.4572 5.81586C17.6933 6.26633 17.8888 6.73694 18.0413 7.22211L16.711 8.88523C16.5937 9.03158 16.5355 9.21654 16.5479 9.40367H16.5507Z" fill="#0D141C"/>
</svg>
