<svg width="24" height="24" viewBox="0 0 24 24" fill="none" xmlns="http://www.w3.org/2000/svg">
<g clip-path="url(#clip0_481_925)">
<path fill-rule="evenodd" clip-rule="evenodd" d="M12 12C12 12.4142 11.6642 12.75 11.25 12.75H4.5C4.08579 12.75 3.75 12.4142 3.75 12C3.75 11.5858 4.08579 11.25 4.5 11.25H11.25C11.6642 11.25 12 11.5858 12 12ZM4.5 6.75H17.25C17.6642 6.75 18 6.41421 18 6C18 5.58579 17.6642 5.25 17.25 5.25H4.5C4.08579 5.25 3.75 5.58579 3.75 6C3.75 6.41421 4.08579 6.75 4.5 6.75ZM9.75 17.25H4.5C4.08579 17.25 3.75 17.5858 3.75 18C3.75 18.4142 4.08579 18.75 4.5 18.75H9.75C10.1642 18.75 10.5 18.4142 10.5 18C10.5 17.5858 10.1642 17.25 9.75 17.25ZM21.5306 15.2194C21.3899 15.0785 21.1991 14.9994 21 14.9994C20.8009 14.9994 20.6101 15.0785 20.4694 15.2194L18 17.6897V10.5C18 10.0858 17.6642 9.75 17.25 9.75C16.8358 9.75 16.5 10.0858 16.5 10.5V17.6897L14.0306 15.2194C13.7376 14.9263 13.2624 14.9263 12.9694 15.2194C12.6763 15.5124 12.6763 15.9876 12.9694 16.2806L16.7194 20.0306C16.8601 20.1715 17.0509 20.2506 17.25 20.2506C17.4491 20.2506 17.6399 20.1715 17.7806 20.0306L21.5306 16.2806C21.6715 16.1399 21.7506 15.9491 21.7506 15.75C21.7506 15.5509 21.6715 15.3601 21.5306 15.2194Z" fill="#0D141C"/>
</g>
<defs>
<clipPath id="clip0_481_925">
<rect width="24" height="24" fill="white"/>
</clipPath>
</defs>
</svg>
