<svg width="24" height="24" viewBox="0 0 24 24" fill="none" xmlns="http://www.w3.org/2000/svg">
<g clip-path="url(#clip0_468_540)">
<path fill-rule="evenodd" clip-rule="evenodd" d="M15 3.75C11.8752 3.7524 9.01929 5.51831 7.62094 8.31281C5.39765 7.98856 3.17951 8.93363 1.87326 10.7617C0.567001 12.5898 0.391555 14.9945 1.41864 16.9928C2.44572 18.9911 4.50319 20.2481 6.75 20.25H15C19.5563 20.25 23.25 16.5563 23.25 12C23.25 7.44365 19.5563 3.75 15 3.75ZM15 18.75H6.75C4.26472 18.75 2.25 16.7353 2.25 14.25C2.25 11.7647 4.26472 9.75 6.75 9.75C6.85313 9.75 6.95625 9.75 7.05844 9.76031C6.85333 10.4892 6.74955 11.2428 6.75 12C6.75 12.4142 7.08579 12.75 7.5 12.75C7.91421 12.75 8.25 12.4142 8.25 12C8.25 8.27208 11.2721 5.25 15 5.25C18.7279 5.25 21.75 8.27208 21.75 12C21.75 15.7279 18.7279 18.75 15 18.75Z" fill="#0D141C"/>
</g>
<defs>
<clipPath id="clip0_468_540">
<rect width="24" height="24" fill="white"/>
</clipPath>
</defs>
</svg>
