<svg width="20" height="21" viewBox="0 0 20 21" fill="none" xmlns="http://www.w3.org/2000/svg">
<path fill-rule="evenodd" clip-rule="evenodd" d="M18 2.25H10.5V0.75C10.5 0.335786 10.1642 0 9.75 0C9.33579 0 9 0.335786 9 0.75V2.25H1.5C0.671573 2.25 0 2.92157 0 3.75V15C0 15.8284 0.671573 16.5 1.5 16.5H5.19L3.16406 19.0312C2.90518 19.3549 2.95765 19.8271 3.28125 20.0859C3.60485 20.3448 4.07705 20.2924 4.33594 19.9688L7.11 16.5H12.39L15.1641 19.9688C15.4229 20.2924 15.8951 20.3448 16.2188 20.0859C16.5424 19.8271 16.5948 19.3549 16.3359 19.0312L14.31 16.5H18C18.8284 16.5 19.5 15.8284 19.5 15V3.75C19.5 2.92157 18.8284 2.25 18 2.25V2.25ZM18 15H1.5V3.75H18V15V15ZM7.5 9.75V12C7.5 12.4142 7.16421 12.75 6.75 12.75C6.33579 12.75 6 12.4142 6 12V9.75C6 9.33579 6.33579 9 6.75 9C7.16421 9 7.5 9.33579 7.5 9.75V9.75ZM10.5 8.25V12C10.5 12.4142 10.1642 12.75 9.75 12.75C9.33579 12.75 9 12.4142 9 12V8.25C9 7.83579 9.33579 7.5 9.75 7.5C10.1642 7.5 10.5 7.83579 10.5 8.25V8.25ZM13.5 6.75V12C13.5 12.4142 13.1642 12.75 12.75 12.75C12.3358 12.75 12 12.4142 12 12V6.75C12 6.33579 12.3358 6 12.75 6C13.1642 6 13.5 6.33579 13.5 6.75V6.75Z" fill="#0D121C"/>
</svg>
