<svg width="24" height="24" viewBox="0 0 24 24" fill="none" xmlns="http://www.w3.org/2000/svg">
<g clip-path="url(#clip0_515_5573)">
<path fill-rule="evenodd" clip-rule="evenodd" d="M15.75 10.5C15.75 13.3995 13.3995 15.75 10.5 15.75C7.6005 15.75 5.25 13.3995 5.25 10.5C5.25 7.6005 7.6005 5.25 10.5 5.25C13.3995 5.25 15.75 7.6005 15.75 10.5ZM21.5306 21.5306C21.3899 21.6715 21.1991 21.7506 21 21.7506C20.8009 21.7506 20.6101 21.6715 20.4694 21.5306L15.7762 16.8366C12.3858 19.6572 7.37647 19.3124 4.40446 16.0538C1.43245 12.7952 1.54894 7.77538 4.66892 4.65816C7.7889 1.54094 12.8088 1.42888 16.0648 4.40377C19.3208 7.37866 19.6611 12.3883 16.8375 15.7762L21.5306 20.4694C21.6715 20.6101 21.7506 20.8009 21.7506 21C21.7506 21.1991 21.6715 21.3899 21.5306 21.5306ZM10.5 17.25C14.2279 17.25 17.25 14.2279 17.25 10.5C17.25 6.77208 14.2279 3.75 10.5 3.75C6.77208 3.75 3.75 6.77208 3.75 10.5C3.75413 14.2262 6.77379 17.2459 10.5 17.25Z" fill="#0D121C"/>
</g>
<defs>
<clipPath id="clip0_515_5573">
<rect width="24" height="24" fill="white"/>
</clipPath>
</defs>
</svg>
