<svg width="24" height="16" viewBox="0 0 24 16" fill="none" xmlns="http://www.w3.org/2000/svg">
<path fill-rule="evenodd" clip-rule="evenodd" d="M10.7891 10.307C12.8529 8.93294 13.7738 6.36962 13.056 3.99636C12.3383 1.6231 10.1513 -0.000329018 7.67188 -0.000329018C5.19246 -0.000329018 3.00545 1.6231 2.28771 3.99636C1.56997 6.36962 2.4908 8.93294 4.55469 10.307C2.7364 10.9771 1.18354 12.2172 0.127813 13.8423C-0.0231933 14.0667 -0.0416409 14.3551 0.0795349 14.5969C0.200711 14.8388 0.442732 14.9966 0.712906 15.01C0.98308 15.0234 1.23954 14.8903 1.38406 14.6616C2.76764 12.5336 5.13364 11.2498 7.67188 11.2498C10.2101 11.2498 12.5761 12.5336 13.9597 14.6616C14.1886 15.0018 14.6482 15.0952 14.9917 14.8712C15.3351 14.6472 15.435 14.1889 15.2159 13.8423C14.1602 12.2172 12.6074 10.9771 10.7891 10.307ZM3.54688 5.62695C3.54688 3.34878 5.3937 1.50195 7.67188 1.50195C9.95005 1.50195 11.7969 3.34878 11.7969 5.62695C11.7969 7.90513 9.95005 9.75195 7.67188 9.75195C5.39477 9.74937 3.54946 7.90406 3.54688 5.62695ZM23.2475 14.8801C22.9006 15.1063 22.436 15.0085 22.2097 14.6616C20.8277 12.5322 18.4604 11.2486 15.9219 11.252C15.5077 11.252 15.1719 10.9162 15.1719 10.502C15.1719 10.0877 15.5077 9.75195 15.9219 9.75195C17.5832 9.75039 19.0814 8.75237 19.723 7.21993C20.3645 5.6875 20.0242 3.91975 18.8595 2.73507C17.6948 1.55039 15.9331 1.18001 14.39 1.79539C14.1395 1.90367 13.85 1.86736 13.634 1.7006C13.4181 1.53383 13.3097 1.26292 13.3511 0.993203C13.3925 0.723488 13.5771 0.497534 13.8331 0.403203C16.5078 -0.66348 19.5561 0.46196 20.8959 3.01078C22.2357 5.5596 21.4343 8.70866 19.0391 10.307C20.8574 10.9771 22.4102 12.2172 23.4659 13.8423C23.6922 14.1892 23.5944 14.6538 23.2475 14.8801Z" fill="#0D141C"/>
</svg>
