<svg width="18" height="20" viewBox="0 0 18 20" fill="none" xmlns="http://www.w3.org/2000/svg">
<path fill-rule="evenodd" clip-rule="evenodd" d="M17.25 3H13.5V2.25C13.5 1.00736 12.4926 0 11.25 0H6.75C5.50736 0 4.5 1.00736 4.5 2.25V3H0.75C0.335786 3 0 3.33579 0 3.75C0 4.16421 0.335786 4.5 0.75 4.5H1.5V18C1.5 18.8284 2.17157 19.5 3 19.5H15C15.8284 19.5 16.5 18.8284 16.5 18V4.5H17.25C17.6642 4.5 18 4.16421 18 3.75C18 3.33579 17.6642 3 17.25 3ZM6 2.25C6 1.83579 6.33579 1.5 6.75 1.5H11.25C11.6642 1.5 12 1.83579 12 2.25V3H6V2.25ZM15 18H3V4.5H15V18ZM7.5 8.25V14.25C7.5 14.6642 7.16421 15 6.75 15C6.33579 15 6 14.6642 6 14.25V8.25C6 7.83579 6.33579 7.5 6.75 7.5C7.16421 7.5 7.5 7.83579 7.5 8.25ZM12 8.25V14.25C12 14.6642 11.6642 15 11.25 15C10.8358 15 10.5 14.6642 10.5 14.25V8.25C10.5 7.83579 10.8358 7.5 11.25 7.5C11.6642 7.5 12 7.83579 12 8.25Z" fill="#0D141C"/>
</svg>
